<?xml version="1.0" encoding="utf-8"?>
<!-- Generator: Adobe Illustrator 16.2.1, SVG Export Plug-In . SVG Version: 6.00 Build 0)  -->
<!DOCTYPE svg PUBLIC "-//W3C//DTD SVG 1.1//EN" "http://www.w3.org/Graphics/SVG/1.1/DTD/svg11.dtd">
<svg version="1.1" id="Layer_1" xmlns="http://www.w3.org/2000/svg" xmlns:xlink="http://www.w3.org/1999/xlink" x="0px" y="0px"
	 width="70px" height="70px" viewBox="0 0 141.5 141.25" enable-background="new 0 0 141.5 141.25" xml:space="preserve">
<g>
	<path fill="#282828" d="M130.463,120.327c0,5.297-4.293,9.59-9.589,9.59H20.626c-5.296,0-9.589-4.293-9.589-9.59V20.922
		c0-5.295,4.293-9.589,9.589-9.589h100.248c5.296,0,9.589,4.293,9.589,9.589V120.327z"/>
	<path fill="#D8D8D8" d="M85.902,67.271l-36.757,36.757c-1.193,1.193-1.193,3.127,0,4.321c1.193,1.193,3.127,1.193,4.32,0
		l38.892-38.891c0.604-0.604,0.898-1.396,0.893-2.188c0.008-0.791-0.289-1.584-0.893-2.188L53.466,26.191
		c-1.193-1.192-3.127-1.192-4.32,0c-1.193,1.193-1.193,3.127,0,4.321L85.902,67.271z"/>
</g>
</svg>
