<?xml version="1.0" encoding="utf-8"?>
<!-- Generator: Adobe Illustrator 16.2.1, SVG Export Plug-In . SVG Version: 6.00 Build 0)  -->
<!DOCTYPE svg PUBLIC "-//W3C//DTD SVG 1.1//EN" "http://www.w3.org/Graphics/SVG/1.1/DTD/svg11.dtd">
<svg version="1.1" id="Layer_1" xmlns="http://www.w3.org/2000/svg" xmlns:xlink="http://www.w3.org/1999/xlink" x="0px" y="0px"
	 width="70px" height="70px" viewBox="0 0 141.5 141.25" enable-background="new 0 0 141.5 141.25" xml:space="preserve">
<path fill="#282828" d="M130.463,120.327c0,5.297-4.293,9.59-9.589,9.59H20.626c-5.296,0-9.589-4.293-9.589-9.59V20.922
	c0-5.295,4.293-9.589,9.589-9.589h100.248c5.296,0,9.589,4.293,9.589,9.589V120.327z"/>
<path fill="#D8D8D8" d="M62.406,103.524c-0.002,1.544-2.02,2.792-4.505,2.788l0,0c-2.486-0.004-4.499-1.26-4.496-2.804l0.123-72.031
	c0.002-1.544,2.02-2.792,4.505-2.788l0,0c2.486,0.004,4.499,1.259,4.497,2.803L62.406,103.524z"/>
<path fill="#D8D8D8" d="M87.612,103.567c-0.002,1.544-2.02,2.792-4.505,2.788l0,0c-2.486-0.004-4.499-1.26-4.497-2.804l0.123-72.031
	c0.002-1.544,2.021-2.792,4.507-2.788l0,0c2.485,0.004,4.497,1.259,4.495,2.803L87.612,103.567z"/>
</svg>
